<svg width="215" height="191" viewBox="0 0 215 191" fill="none" xmlns="http://www.w3.org/2000/svg">
<path fill-rule="evenodd" clip-rule="evenodd" d="M83.4524 16.668C87.135 12.5521 86.7838 6.2302 82.6679 2.54759C78.5521 -1.13501 72.2302 -0.783798 68.5476 3.33206L20 57.5911L20 17C20 11.4772 15.5228 7 10 7C4.47715 7 0 11.4772 0 17L-7.25609e-06 173C-7.4975e-06 178.523 4.47714 183 9.99999 183C15.5228 183 20 178.523 20 173L20 88.3421C33.9551 75.5363 44.1138 71.3186 50.9592 70.9749C57.6194 70.6406 63.4414 73.9412 68.8826 82.133C74.468 90.5417 78.6521 102.84 81.4263 116.854C84.0157 129.935 85.2408 143.798 85.4702 155.965C83.994 160.58 86.0588 165.71 90.5279 167.944C95.4677 170.414 101.474 168.412 103.944 163.472L104.444 162.472L104.581 162.198L104.701 161.917L143.111 71.6885C143.442 73.1719 143.794 74.6406 144.167 76.0865C146.021 83.2698 148.565 90.5327 152.158 96.3334C155.637 101.949 161.341 108.105 170.029 108.953C179.606 109.887 186.037 103.66 189.677 98.0438C191.243 95.6282 192.596 92.9072 193.773 90.0202C195.046 104.317 194.98 118.554 192.776 131.094C190.215 145.66 185.01 156.578 177.101 163.137C169.513 169.43 157.75 173.092 138.781 169.66C133.346 168.676 128.143 172.285 127.16 177.719C126.176 183.154 129.785 188.357 135.219 189.34C158.25 193.508 176.528 189.595 189.868 178.532C202.886 167.735 209.493 151.515 212.474 134.556C218.41 100.788 210.925 58.7311 202.586 30.6532L202.337 29.8124L201.944 29.0279L201.444 28.0279C198.974 23.0881 192.968 21.0858 188.028 23.5557C183.588 25.7756 181.521 30.8524 182.941 35.4438C182.578 46.1789 181.197 60.9328 178.252 72.8974C176.654 79.3927 174.785 84.2492 172.894 87.1656C172.349 88.0079 171.928 88.515 171.635 88.8116C171.154 88.4592 170.302 87.6435 169.16 85.801C167.102 82.4777 165.17 77.4344 163.533 71.0885C160.513 59.3872 159.028 45.4289 158.579 35.3772C159.959 30.8033 157.89 25.7648 153.472 23.5557C148.532 21.0858 142.526 23.0881 140.056 28.0279L139.556 29.0279L139.419 29.3016L139.299 29.5831L101.884 117.472C101.621 115.967 101.341 114.465 101.046 112.971C98.0542 97.8596 93.2195 82.625 85.5424 71.067C78.1848 59.9903 67.4089 51.2812 52.7705 50.9595L83.4524 16.668ZM171.141 89.1917C171.141 89.1797 171.198 89.1369 171.314 89.0993C171.2 89.1849 171.142 89.2037 171.141 89.1917ZM172.065 89.0616C172.078 89.0645 172.084 89.0667 172.084 89.067C172.084 89.0673 172.077 89.0659 172.065 89.0616Z" fill="white"/>
</svg>
