<svg width="139" height="97" viewBox="0 0 139 97" fill="none" xmlns="http://www.w3.org/2000/svg">
<path d="M9.87305 66.3809C8.53516 66.3809 7.11914 66.2051 5.625 65.8535C4.13086 65.502 2.8418 65.0234 1.75781 64.418L3.25195 61.2393C5.41992 62.3916 7.66113 62.9678 9.97559 62.9678C11.1377 62.9678 11.958 62.7285 12.4365 62.25C12.915 61.7715 13.1543 61.0537 13.1543 60.0967C13.1543 59.9111 13.1348 59.6328 13.0957 59.2617C13.0078 58.3828 12.0312 57.665 10.166 57.1084L6.47461 56.0244C5.3418 55.6924 4.43359 55.2188 3.75 54.6035C3.06641 53.9785 2.60254 53.2998 2.3584 52.5674C2.11426 51.8252 1.99219 50.9609 1.99219 49.9746C1.99219 47.9922 2.69531 46.5029 4.10156 45.5068C5.51758 44.5107 7.31934 44.0127 9.50684 44.0127C12.3975 44.0127 14.8096 44.5742 16.7432 45.6973L15.5127 48.7588C13.6279 47.8701 11.7529 47.4258 9.8877 47.4258C7.54395 47.4258 6.33789 48.1436 6.26953 49.5791C6.26953 49.6572 6.26953 49.7305 6.26953 49.7988C6.26953 50.5312 6.4502 51.1025 6.81152 51.5127C7.18262 51.9229 7.93457 52.2988 9.06738 52.6406L12.7441 53.7393C14.2285 54.1885 15.3271 54.8965 16.04 55.8633C16.7627 56.8301 17.124 58.207 17.124 59.9941C17.124 61.7715 16.5527 63.2803 15.4102 64.5205C14.2773 65.7607 12.4316 66.3809 9.87305 66.3809ZM21.5625 66V44.3789H26.3525L32.5049 54.8525L38.5693 44.3789H43.4473V66H39.375V50.0186L33.9697 59.7158H31.0547L25.6348 50.0771V66H21.5625ZM53.9209 58.9834H60.6885L57.3633 47.6162L53.9209 58.9834ZM47.2559 66L54.375 44.3789H60.1465L67.3535 66H62.7393L61.5234 61.8838H53.0566L51.7969 66H47.2559ZM75.5127 54.3545H80.8594C81.8848 54.3545 82.5879 54.0664 82.9688 53.4902C83.3594 52.9043 83.5547 52.0205 83.5547 50.8389C83.5547 48.5928 82.7148 47.4697 81.0352 47.4697H75.5127V54.3545ZM71.1621 66V44.3789H80.4932C83.2861 44.3789 85.1855 44.9453 86.1914 46.0781C87.207 47.2109 87.7148 48.749 87.7148 50.6924C87.7148 52.626 87.4316 54.0371 86.8652 54.9258C86.3086 55.8047 85.5322 56.4395 84.5361 56.8301L88.7109 66H84.1992L80.4053 57.46H75.5127V66H71.1621ZM96.6943 66V47.6895H90.6738V44.3789H107.051V47.6895H101.03V66H96.6943Z" fill="white"/>
<path d="M56.08 80C56.08 78.6133 56.3667 77.38 56.94 76.3C57.5267 75.2067 58.3267 74.3533 59.34 73.74C60.3667 73.1267 61.5133 72.82 62.78 72.82C64.38 72.82 65.7267 73.1933 66.82 73.94C67.9133 74.6867 68.7133 75.7333 69.22 77.08H68.18C67.78 76.0133 67.1133 75.1733 66.18 74.56C65.26 73.9333 64.1267 73.62 62.78 73.62C61.7 73.62 60.72 73.88 59.84 74.4C58.96 74.9067 58.2667 75.6467 57.76 76.62C57.2533 77.58 57 78.7067 57 80C57 81.28 57.2533 82.4 57.76 83.36C58.2667 84.3067 58.96 85.04 59.84 85.56C60.72 86.08 61.7 86.34 62.78 86.34C64.1267 86.34 65.26 86.0333 66.18 85.42C67.1133 84.7933 67.78 83.9467 68.18 82.88H69.22C68.7133 84.2267 67.9133 85.2733 66.82 86.02C65.7267 86.7667 64.38 87.14 62.78 87.14C61.5133 87.14 60.3667 86.84 59.34 86.24C58.3267 85.6267 57.5267 84.78 56.94 83.7C56.3667 82.6067 56.08 81.3733 56.08 80ZM72.9306 72.2V87H72.0306V72.2H72.9306ZM75.6698 81.56C75.6698 80.44 75.8898 79.46 76.3298 78.62C76.7832 77.78 77.4032 77.1333 78.1898 76.68C78.9898 76.2267 79.8965 76 80.9098 76C82.0565 76 83.0298 76.28 83.8298 76.84C84.6298 77.4 85.1898 78.1133 85.5098 78.98V76.14H86.4098V87H85.5098V84.14C85.1898 85.02 84.6232 85.7467 83.8098 86.32C83.0098 86.88 82.0432 87.16 80.9098 87.16C79.8965 87.16 78.9898 86.9333 78.1898 86.48C77.4032 86.0133 76.7832 85.36 76.3298 84.52C75.8898 83.6667 75.6698 82.68 75.6698 81.56ZM85.5098 81.56C85.5098 80.6133 85.3098 79.78 84.9098 79.06C84.5232 78.3267 83.9898 77.7667 83.3098 77.38C82.6298 76.98 81.8698 76.78 81.0298 76.78C80.1498 76.78 79.3765 76.9733 78.7098 77.36C78.0432 77.7333 77.5232 78.28 77.1498 79C76.7765 79.72 76.5898 80.5733 76.5898 81.56C76.5898 82.5467 76.7765 83.4 77.1498 84.12C77.5232 84.84 78.0432 85.3933 78.7098 85.78C79.3898 86.1667 80.1632 86.36 81.0298 86.36C81.8698 86.36 82.6298 86.1667 83.3098 85.78C84.0032 85.38 84.5432 84.82 84.9298 84.1C85.3165 83.3667 85.5098 82.52 85.5098 81.56ZM93.3069 87.16C92.0935 87.16 91.1002 86.8933 90.3269 86.36C89.5669 85.8267 89.1402 85.0667 89.0469 84.08H89.9669C90.0335 84.7867 90.3535 85.3467 90.9269 85.76C91.5135 86.1733 92.3069 86.38 93.3069 86.38C94.1335 86.38 94.7869 86.1733 95.2669 85.76C95.7602 85.3333 96.0069 84.8133 96.0069 84.2C96.0069 83.7733 95.8735 83.4267 95.6069 83.16C95.3535 82.88 95.0335 82.6667 94.6469 82.52C94.2602 82.3733 93.7335 82.2133 93.0669 82.04C92.2669 81.8267 91.6202 81.62 91.1269 81.42C90.6335 81.2067 90.2135 80.8933 89.8669 80.48C89.5202 80.0667 89.3469 79.5133 89.3469 78.82C89.3469 78.3133 89.5002 77.8467 89.8069 77.42C90.1135 76.98 90.5402 76.6333 91.0869 76.38C91.6335 76.1267 92.2535 76 92.9469 76C94.0802 76 94.9935 76.2867 95.6869 76.86C96.3935 77.42 96.7735 78.2 96.8269 79.2H95.9269C95.8869 78.48 95.6069 77.8933 95.0869 77.44C94.5669 76.9867 93.8469 76.76 92.9269 76.76C92.1535 76.76 91.5135 76.96 91.0069 77.36C90.5002 77.76 90.2469 78.2467 90.2469 78.82C90.2469 79.3267 90.3869 79.74 90.6669 80.06C90.9602 80.3667 91.3135 80.6067 91.7269 80.78C92.1535 80.94 92.7135 81.1133 93.4069 81.3C94.1669 81.5 94.7735 81.7 95.2269 81.9C95.6935 82.0867 96.0869 82.3667 96.4069 82.74C96.7269 83.1 96.8869 83.5867 96.8869 84.2C96.8869 84.76 96.7335 85.2667 96.4269 85.72C96.1202 86.1733 95.6935 86.5267 95.1469 86.78C94.6002 87.0333 93.9869 87.16 93.3069 87.16ZM103.248 87.16C102.035 87.16 101.042 86.8933 100.268 86.36C99.5083 85.8267 99.0816 85.0667 98.9883 84.08H99.9083C99.9749 84.7867 100.295 85.3467 100.868 85.76C101.455 86.1733 102.248 86.38 103.248 86.38C104.075 86.38 104.728 86.1733 105.208 85.76C105.702 85.3333 105.948 84.8133 105.948 84.2C105.948 83.7733 105.815 83.4267 105.548 83.16C105.295 82.88 104.975 82.6667 104.588 82.52C104.202 82.3733 103.675 82.2133 103.008 82.04C102.208 81.8267 101.562 81.62 101.068 81.42C100.575 81.2067 100.155 80.8933 99.8083 80.48C99.4616 80.0667 99.2883 79.5133 99.2883 78.82C99.2883 78.3133 99.4416 77.8467 99.7483 77.42C100.055 76.98 100.482 76.6333 101.028 76.38C101.575 76.1267 102.195 76 102.888 76C104.022 76 104.935 76.2867 105.628 76.86C106.335 77.42 106.715 78.2 106.768 79.2H105.868C105.828 78.48 105.548 77.8933 105.028 77.44C104.508 76.9867 103.788 76.76 102.868 76.76C102.095 76.76 101.455 76.96 100.948 77.36C100.442 77.76 100.188 78.2467 100.188 78.82C100.188 79.3267 100.328 79.74 100.608 80.06C100.902 80.3667 101.255 80.6067 101.668 80.78C102.095 80.94 102.655 81.1133 103.348 81.3C104.108 81.5 104.715 81.7 105.168 81.9C105.635 82.0867 106.028 82.3667 106.348 82.74C106.668 83.1 106.828 83.5867 106.828 84.2C106.828 84.76 106.675 85.2667 106.368 85.72C106.062 86.1733 105.635 86.5267 105.088 86.78C104.542 87.0333 103.928 87.16 103.248 87.16Z" fill="white"/>
<path d="M124 37C124 40.3137 121.314 41 118 41C114.686 41 112 40.3137 112 37C112 33.6863 114.686 31 118 31C121.314 31 124 33.6863 124 37Z" fill="white"/>
<circle cx="118.5" cy="27.5" r="10.5" fill="white"/>
<path d="M118 2L118 11" stroke="white" stroke-width="3" stroke-linecap="round"/>
<path d="M100 10L105.718 15.7175" stroke="white" stroke-width="3" stroke-linecap="round"/>
<path d="M136 10L130 15.7175" stroke="white" stroke-width="3" stroke-linecap="round"/>
</svg>
